<svg version="1.1" id="Layer_1" xmlns="http://www.w3.org/2000/svg" x="0" y="0" viewBox="0 0 310 72" style="enable-background:new 0 0 310 72" xml:space="preserve"><style>.st0{fill:#00b5e2}.st1{fill:#e5007e}.st2{fill:#003c71}</style><g id="logoMark"><path id="logoMark_PathItem_" class="st0" d="m39.6 52.6 6.6 14c.3.7 1 1.1 1.8 1.1h4.4c.7 0 1.2-.6 1.2-1.2 0-.2 0-.4-.1-.5l-6.6-14c-.3-.7-1-1.1-1.8-1.1h-4.3c-.7 0-1.2.6-1.2 1.2-.1.2-.1.4 0 .5z"/><path id="logoMark_PathItem_2" class="st1" d="M44.3.8 39 15.4c-.3.7-.1 1.5.5 2.1l3.1 3.1c.5.5 1.3.5 1.7 0 .1-.1.2-.3.3-.5l5.3-14.6c.3-.7.1-1.5-.5-2.1L46.3.3c-.5-.5-1.3-.5-1.7 0-.2.2-.3.3-.3.5z"/><path id="logoMark_PathItem_3" class="st0" d="m17.3 4.7 6.6 14c.3.7 1 1.1 1.8 1.1h4.4c.7 0 1.2-.6 1.2-1.2 0-.2 0-.4-.1-.5L24.5 4c-.3-.7-1-1.1-1.8-1.1h-4.3c-.7 0-1.2.6-1.2 1.2-.1.2 0 .4.1.6z"/><path id="logoMark_PathItem_4" class="st1" d="m.8 26.5 14.5 5.4c.7.3 1.5.1 2.1-.5l3.1-3.1c.5-.5.5-1.3 0-1.7-.1-.1-.3-.2-.4-.3L5.5 21c-.7-.3-1.5-.1-2.1.5L.3 24.6c-.5.5-.5 1.3 0 1.7.2.1.3.2.5.2z"/><path id="logoMark_PathItem_5" class="st1" d="M50.5 44.6 65.1 50c.7.3 1.5.1 2.1-.5l3.1-3.1c.5-.5.5-1.3 0-1.7-.1-.1-.3-.2-.4-.3l-14.5-5.3c-.7-.3-1.5-.1-2.1.5l-3.1 3.1c-.5.5-.5 1.3 0 1.7 0 .1.2.2.3.2z"/><path id="logoMark_PathItem_6" class="st2" d="m37.1 37.1-3.7-3.6c-.4-.4-.9-.5-1.4-.3L2.5 46.9c-.7.3-1.1 1-1.1 1.8v4.4c0 .7.6 1.2 1.2 1.2.2 0 .4 0 .5-.1L29.3 42l-8.9 24.5c-.3.7-.1 1.5.5 2.1l3.1 3.1c.5.5 1.3.5 1.7 0 .1-.1.2-.3.3-.5l11.6-32c.3-.8.1-1.6-.5-2.1z"/><path id="logoMark_PathItem_7" class="st0" d="m66.1 17.2-14 6.5c-.7.3-1.1 1-1.1 1.8v4.4c0 .7.6 1.2 1.2 1.2.2 0 .4 0 .5-.1l14-6.5c.7-.3 1.2-1 1.2-1.8v-4.3c0-.7-.6-1.2-1.2-1.2-.2-.1-.4 0-.6 0z"/></g><path id="fullLogo" class="st2" d="m89.8 19.8 9 24.3 9-24.3h4.5l-11.7 31H97l-11.7-31h4.5z"/><path id="fullLogo-2" class="st2" d="m119.9 19.8 16 22.9V19.8h4.3v31h-3.8l-16.1-22.9v22.9H116v-31h3.9z"/><path id="fullLogo-3" class="st2" d="M144 40.9h4.1c0 3.6 2.9 6.1 7 6.1 3.8 0 6.6-2 6.6-4.9 0-7.9-17.4-2.9-17.4-14.1 0-4.9 4.3-8.4 10.2-8.4 6.8 0 10.4 4.2 10.4 9.2h-4.3c-.1-3-2.6-5.2-6.2-5.2-3.5 0-5.9 1.8-5.9 4.4 0 7.2 17.5 2.2 17.5 14.1 0 5.2-4.6 8.9-10.8 8.9-6.5 0-11.2-4.3-11.2-10.1z"/><path id="fullLogo-4" class="st2" d="M206.9 19.8v31h-4.3v-14h-16.2v14h-4.3v-31h4.3v12.9h16.2V19.8h4.3z"/><path id="fullLogo-5" class="st2" d="M232 41.1h-17.4c.2 3.8 3.4 6.6 7.2 6.5 3 0 5.4-1.5 6-3.8h4.1c-.8 4.5-5 7.4-10.2 7.4-6.2-.1-11.2-5.2-11.1-11.4.1-6.1 5-11 11-11.1 5.7 0 10.4 4.6 10.5 10.3v.4c-.1.5-.1 1.3-.1 1.7zm-4.4-3.5c-.4-3.1-3.1-5.4-6.2-5.2-3.2-.2-6 2-6.7 5.2h12.9z"/><path id="fullLogo-6" class="st2" d="M258.6 29.2v21.6h-4.1v-4.4c-1.5 3.1-4.8 5-8.2 4.9-5.8 0-10.5-5-10.5-11.3s4.7-11.2 10.5-11.2c3.5-.2 6.7 1.8 8.2 4.9v-4.4l4.1-.1zM254.5 40c.1-4-3-7.2-7-7.4h-.4c-4.1 0-7.4 3.3-7.4 7.4s3.3 7.4 7.4 7.4c4 .1 7.3-3 7.4-6.9V40z"/><path id="fullLogo-7" class="st2" d="M266.5 50.8h-4.1v-31h4.1v31z"/><path id="fullLogo-8" class="st2" d="M278.6 33.1v10c0 3 1.8 4.2 4.3 4.2.5 0 1-.1 1.5-.2v3.8c-.8.2-1.6.3-2.3.3-4.6 0-7.6-2.7-7.6-7.9V33.1h-4.2v-3.9h4.2v-5.8h4.1v5.8h5.8v3.9h-5.8z"/><path id="fullLogo-9" class="st2" d="M308.3 38.4v12.4h-4.1V38.9c0-3.8-2.3-6.2-5.9-6.2-3.6 0-6 2.5-6 6.2v11.9h-4.1v-31h4.1V33c1.3-2.6 4-4.3 6.9-4.2 5.7-.1 9.1 3.7 9.1 9.6z"/></svg>